<?xml version="1.0" encoding="UTF-8"?>
<svg id="Camada_2" data-name="Camada 2" xmlns="http://www.w3.org/2000/svg" viewBox="0 0 268.95 229.54">
  <defs>
    <style>
      .cls-1 {
        fill: #fffdf8;
      }

      .cls-2, .cls-3, .cls-4, .cls-5, .cls-6, .cls-7 {
        stroke: #402f27;
      }

      .cls-2, .cls-4 {
        fill: #ef7836;
      }

      .cls-2, .cls-5, .cls-6, .cls-7 {
        stroke-width: 5px;
      }

      .cls-3, .cls-8 {
        fill: #fffaee;
      }

      .cls-5 {
        fill: #b2b2b5;
        stroke-miterlimit: 10;
      }

      .cls-6 {
        fill: #b9916e;
      }

      .cls-7 {
        fill: none;
      }

      .cls-9 {
        fill: #8c7e7b;
      }

      .cls-10 {
        fill: #402f27;
      }
    </style>
  </defs>
  <path class="cls-2" d="M130.98,20.45c-55.9,0-101.21,45.32-101.21,101.21,0,23.3,7.87,44.76,21.11,61.87,18.51,23.93,47.51,39.34,80.11,39.34,55.9,0,101.21-45.32,101.21-101.21S186.88,20.45,130.98,20.45Zm-.27,164.64c-34.88,0-63.16-28.27-63.16-63.16s28.27-63.16,63.16-63.16,63.16,28.27,63.16,63.16-28.27,63.16-63.16,63.16Z"/>
  <path class="cls-7" d="M115.06,41.22s-77.23,14.81-63.83,101.36"/>
  <path class="cls-7" d="M148.63,41.22s73.53,7.28,64.47,101.36"/>
  <g>
    <path class="cls-6" d="M195.7,224.08l-13.43-15.23c14.59-7.92,27.41-23.51,27.41-23.51l10.51,11.99c2.07,2.36,3.29,5.35,3.41,8.49,.33,8.16-1.94,22.68-22.55,21.11-2.1-.16-4.05-1.19-5.35-2.84Z"/>
    <path class="cls-6" d="M183.09,157.15L36.13,9.09c-1.33-1.34-3.01-2.25-4.85-2.65C24.02,4.86,6.25,3.37,7.79,27.13c.16,2.42,1.23,4.69,2.96,6.38l105.46,103.39,42.06,41.23s15.15-6.44,24.82-20.98Z"/>
    <path class="cls-7" d="M161.42,135.92s-8.82-2.43-14.67-1.33c-5.85,1.1-10.48-7.57-9.75-10.54s-6.02-18.81-6.02-18.81l30.44,30.67Z"/>
    <path class="cls-8" d="M119.81,132.16l-15.86-17.69s1.84,10.41,5.75,13.67c0,0,1.16,1.98,10.11,4.03Z"/>
    <path class="cls-6" d="M210.19,186.8l9.76,10.36c1.43,1.64,2.49,3.57,3.05,5.67,.93,3.48-1.23,15.37-2.02,15.9,0-.01-21.47-2.61-10.79-31.93Z"/>
    <path class="cls-7" d="M199.88,226.52s2.29-16.32-6.77-25.01c0,0-4.59,3.92-10.85,7.34l12.82,14.57s1.85,2.61,4.8,3.11Z"/>
    <polygon class="cls-8" points="104.36 122.44 59.61 81.48 67.37 74.57 95.58 100.1 104.36 122.44"/>
    <path class="cls-8" d="M145.76,149.22s-17.89-13.61-21.29-21.41c0,0,.28,10.75,6.53,15.61,0,0,6.15,5.76,14.75,5.8Z"/>
    <path class="cls-7" d="M183.23,157.89s-21.8-12-35.84-12.31c0,0-18.28-6.58-23.05-28.53-4.77-21.95-28.06-46.62-28.06-46.62,0,0-40.65-39.82-59.6-47.18C17.72,15.9,13.69,9.66,13.69,9.66c0,0,8.46-6.51,21.15-1.01L183.23,157.89Z"/>
    <path class="cls-7" d="M175.12,167.44s-16.11-10.12-28.49-12.65c-5.07-1.03-9.71-3.57-13.42-7.18-5.35-5.22-11.77-12.86-13.04-20.41-2.26-13.4-34.48-49.53-34.22-49.29l-11.88-10.82"/>
    <path class="cls-7" d="M116.35,137.63s-17.04-21.22-18.24-31.29c-.86-7.21-9.99-14.72-15.1-18.4-2.66-1.92-5.13-4.07-7.42-6.42L21.57,27.45s-5.38-5.19-13.67-4.55"/>
    <path class="cls-5" d="M65.34,3.99l31.35,32.33c2.5,2.58,2.43,6.7-.16,9.19L29.82,109.63c-2.12,2.04-5.47,2.08-7.64,.1L4.41,93.49c-2.25-2.06-2.55-5.47-.72-7.91,4.64-6.18,11.67-18.5,6.07-30.92-1.16-2.58-.63-5.6,1.45-7.51L58.49,3.79c1.96-1.8,5-1.71,6.85,.2Z"/>
    <path class="cls-10" d="M55.39,6.64l-1.07,12.77,5.04,.08,9.41,10.93-9.97-7.5-4.53-.13s-1.96,19.38-.41,26.68c0,0-4.76-9.78-3.33-31.97,0,0,.39-2.98-2.64-3.96l7.52-6.89Z"/>
    <path class="cls-10" d="M43.69,96.3s3.13-7.21,1.77-10.04c0,0-1.95,.07-3.29-2,0,0-1.13-7.17,1.5-12.23,0,0-1.13,7.2,.76,8.82,0,0,1.49,2.96,4.47,2.21,0,0-.63,5.35-.09,5.55l4.47-1.52-9.58,9.21Z"/>
    <path class="cls-1" d="M27.92,107.96c-.77,.71-2.8,1.03-3.59,.34L6.38,92c-1.42-1.24-1.72-3.44-.59-4.95,4.3-5.69,12.84-19.8,6.3-33.61-.66-1.4-.36-3.07,.68-4.21l2.14-2.01c.07-.06,.17-.05,.22,.03,1.16,1.88,11.17,22.55-3.59,40.01-.66,.78-.54,1.96,.25,2.61l18.03,16.28"/>
    <path class="cls-9" d="M94.72,43.53s3.62-2.63-.6-6.4c-4.22-3.77-30.1-30.85-30.1-30.85,0,0-2.63-3.13-4.92,.42l35.62,36.83Z"/>
    <circle class="cls-8" cx="14.9" cy="18" r="2.52"/>
    <path class="cls-8" d="M160.36,162.42c.12,.1-6.06,4.08-13.13,1.63l-11.87-11.42s6.71,3.47,14.13,5.45c0,0,9.32,3.08,10.87,4.34Z"/>
    <path class="cls-8" d="M21.9,32.59l-3.89,3.67-5.13-4.68s-1.51-1.49-1.62-4.65c0,0,3.6-.2,7.24,2.83l3.39,2.83Z"/>
    <path class="cls-8" d="M211.11,223.49s-3.1,1.28-8.54,.98c0,0,.46-7.35-1.15-13.02,0,0,7.33,6,9.69,12.04Z"/>
  </g>
  <g>
    <path class="cls-6" d="M64.73,223.26l13.66-15.02c-14.46-8.15-27.05-23.94-27.05-23.94l-10.69,11.83c-2.11,2.33-3.37,5.3-3.54,8.44-.45,8.15,1.58,22.7,22.22,21.45,2.1-.13,4.07-1.12,5.4-2.76Z"/>
    <path class="cls-6" d="M78.37,157.03L227.6,11.26c1.35-1.32,3.04-2.21,4.89-2.58,7.29-1.47,25.08-2.68,23.18,21.05-.19,2.41-1.31,4.67-3.06,6.33l-107.05,101.74-42.69,40.58s-15.05-6.67-24.49-21.36Z"/>
    <path class="cls-7" d="M100.37,135.64s8.86-2.29,14.69-1.1,10.6-7.4,9.91-10.38,6.31-18.71,6.31-18.71l-30.91,30.2Z"/>
    <path class="cls-8" d="M142.04,132.53l16.13-17.45s-2,10.38-5.96,13.57c0,0-1.19,1.96-10.17,3.87Z"/>
    <path class="cls-6" d="M50.81,185.76l-9.92,10.21c-1.45,1.62-2.55,3.53-3.14,5.62-.98,3.47,1,15.38,1.77,15.93,0-.01,21.5-2.27,11.29-31.76Z"/>
    <path class="cls-7" d="M60.51,225.63s-2.04-16.36,7.15-24.91c0,0,4.53,3.99,10.73,7.51l-13.04,14.37s-1.89,2.58-4.84,3.03Z"/>
    <polygon class="cls-8" points="157.63 123.05 203.02 82.78 195.36 75.75 166.76 100.84 157.63 123.05"/>
    <path class="cls-8" d="M115.83,149.17s18.1-13.33,21.62-21.08c0,0-.45,10.74-6.77,15.51,0,0-6.24,5.66-14.84,5.57Z"/>
    <path class="cls-7" d="M78.22,157.26s21.98-11.66,36.02-11.75c0,0,18.38-6.3,23.49-28.17s28.78-46.18,28.78-46.18c0,0,41.26-39.18,60.32-46.25s23.19-13.24,23.19-13.24c0,0-8.36-6.64-21.13-1.34L78.22,157.26Z"/>
    <path class="cls-7" d="M86.18,166.94s16.26-9.87,28.68-12.2c5.09-.95,9.77-3.42,13.52-6.98,5.43-5.14,11.96-12.67,13.35-20.2,2.47-13.36,35.24-48.99,34.98-48.75l12.05-10.64"/>
    <path class="cls-7" d="M145.41,138.05s17.36-20.96,18.72-31c.97-7.2,10.22-14.56,15.38-18.16,2.69-1.87,5.2-3.99,7.52-6.31l54.86-53.24s5.46-5.11,13.74-4.34"/>
    <path class="cls-5" d="M198.49,5.21l-31.84,31.84c-2.54,2.54-2.53,6.66,.02,9.19l65.7,65.14c2.09,2.07,5.43,2.17,7.64,.21l18.02-15.96c2.28-2.02,2.63-5.43,.84-7.9-4.54-6.25-11.38-18.68-5.59-31.01,1.2-2.56,.72-5.59-1.34-7.53L205.34,5.12c-1.93-1.83-4.97-1.79-6.85,.09Z"/>
    <path class="cls-10" d="M208.39,8.01l.88,12.78h-5.04l-9.57,10.79,10.09-7.34,4.53-.06s1.66,19.4,0,26.68c0,0,4.91-9.7,3.83-31.91,0,0-.34-2.99,2.7-3.92l-7.41-7.01Z"/>
    <path class="cls-10" d="M218.7,97.85s-3.02-7.26-1.61-10.07c0,0,1.95,.1,3.32-1.95,0,0,1.24-7.15-1.31-12.26,0,0,1.02,7.21-.89,8.81,0,0-1.53,2.94-4.5,2.14,0,0,.54,5.36,0,5.55l-4.44-1.59,9.44,9.36Z"/>
    <path class="cls-1" d="M234.28,109.75c.76,.72,2.78,1.07,3.58,.4l18.21-16.02c1.44-1.21,1.77-3.42,.66-4.94-4.22-5.76-12.53-20-5.78-33.71,.68-1.39,.41-3.06-.62-4.22l-2.11-2.04c-.06-.06-.17-.05-.22,.03-1.19,1.86-11.52,22.37,2.97,40.06,.65,.79,.51,1.97-.29,2.6l-18.28,16"/>
    <path class="cls-9" d="M168.49,44.29s-3.58-2.69,.7-6.39,30.57-30.38,30.57-30.38c0,0,2.68-3.09,4.91,.5l-36.19,36.28Z"/>
    <circle class="cls-8" cx="248.7" cy="20" r="2.52"/>
    <path class="cls-8" d="M101.02,162.15c-.12,.09,6,4.17,13.11,1.83l12.04-11.23s-6.77,3.36-14.21,5.23c0,0-9.36,2.94-10.94,4.17Z"/>
    <path class="cls-8" d="M241.47,34.48l3.83,3.73,5.2-4.6s1.53-1.47,1.69-4.63c0,0-3.6-.26-7.29,2.71l-3.44,2.78Z"/>
    <path class="cls-8" d="M49.33,222.43s3.08,1.32,8.52,1.12c0,0-.35-7.36,1.36-13.01,0,0-7.42,5.89-9.88,11.89Z"/>
  </g>
  <path class="cls-3" d="M87.13,179.89l-2.81-3.38c-.13-.16-.33-.24-.53-.22l-13.63,1.23c-.14,.01-.28,.08-.38,.18l-2.64,2.63c-.22,.22-.24,.57-.05,.81l4.09,5.27c.19,.24,.17,.59-.05,.81l-1.1,1.12c-.23,.23-.24,.6-.02,.84l2.47,2.73c.23,.25,.61,.27,.86,.05l1.14-1.02c.24-.21,.61-.21,.84,.02l.89,.86c.22,.22,.57,.23,.81,.04l2.58-2.08c.27-.21,.31-.61,.09-.87l-.42-.51c-.21-.26-.18-.63,.07-.85l7.72-6.78c.25-.22,.28-.6,.07-.85Zm-11.39,3.88l-1.34-1.7c-.28-.36-.09-.89,.35-.98l5.77-1.22,.75,.8-4.71,3.23c-.27,.18-.63,.13-.83-.13Z"/>
  <path class="cls-3" d="M89.31,182.55l-9.93,11.93c-.32,.39-.28,.96,.11,1.3l2.65,2.29c.39,.33,.97,.29,1.31-.1l3.09-3.58c.3-.34,.77-.38,1.18-.19,3.46,1.62,4.95,3.29,3.13,7.89-.2,.51-.16,1.38,.37,1.53l4.9,1.82c.55,.16,.97-.71,1.04-1.28,.21-1.68,.73-5.03-.66-7.2-.31-.49,.32-1.37,.88-1.22,2.21,.59,5.61-2.43,3.6-6.13-.47-.87-1.22-1.57-2.06-2.09l-8.43-5.16c-.39-.24-.9-.16-1.2,.2Z"/>
  <path class="cls-4" d="M89.31,190.45l2.26-3.15,3.56,1.87c.61,.32,1.06,.88,1.23,1.54,.23,.91,.09,2.01-1.96,1.97-.51,0-1.01-.15-1.46-.38l-3.63-1.85Z"/>
  <path class="cls-3" d="M104.47,190.81l-.9,2.94c-.1,.33,.05,.67,.35,.82,.71,.35,2.13,.97,4.19,1.44,.38,.09,.63,.47,.53,.85l-2.84,11.07c-.08,.32,.07,.66,.38,.8,.81,.38,2.43,1.04,3.92,1.08,.33,0,.63-.21,.71-.53l2.66-11.15c.09-.39,.49-.61,.87-.5,.99,.28,2.85,.77,4.31,.88,.34,.02,.65-.19,.74-.52l.77-2.95c.1-.39-.15-.79-.55-.86-2.46-.43-10.42-1.9-14.16-3.77-.38-.19-.84,0-.97,.41Z"/>
  <path class="cls-3" d="M158.25,188.59l3.12-2.07c.39-.26,.91-.13,1.14,.27l5.87,10.28c.18,.31,.54,.47,.88,.39,1.01-.25,3.12-.98,4.99-3.02,.34-.37,.94-.33,1.23,.08l2.02,2.77c.23,.31,.2,.74-.06,1.02-1.34,1.42-5.53,5.45-10.52,5.94-.31,.03-.61-.14-.77-.41l-8.18-14.18c-.21-.37-.1-.84,.25-1.07Z"/>
  <path class="cls-3" d="M129.85,193.92c-5,0-9.06,4.12-9.06,9.2s4.06,9.19,9.06,9.19,9.06-4.11,9.06-9.19-4.06-9.2-9.06-9.2Zm0,14.4c-2.83,0-5.12-2.33-5.12-5.2s2.29-5.2,5.12-5.2,5.12,2.33,5.12,5.2-2.29,5.2-5.12,5.2Z"/>
  <path class="cls-3" d="M149.94,192.32c-5,0-9.06,4.12-9.06,9.2s4.06,9.19,9.06,9.19,9.06-4.11,9.06-9.19-4.06-9.2-9.06-9.2Zm0,14.4c-2.83,0-5.12-2.33-5.12-5.2s2.29-5.2,5.12-5.2,5.12,2.33,5.12,5.2-2.29,5.2-5.12,5.2Z"/>
  <path class="cls-3" d="M180.27,189.07l-2.26,1.56c-.38,.26-.45,.79-.17,1.15,1.17,1.48,4.35,4.62,8.62,1.95l4.75-3.36c.95-.67,1.67-1.6,2.12-2.67,.83-1.98,1.28-5.85-3.28-7.74-2.98-1.23-4.11,.7-8.36,2.79-2.34,1.15-3.29,.58-3.38-.23-.09-.76,.39-1.76,.99-2.23l2.1-1.32c1.09-.55,1.95-.07,2.42,.33,.27,.24,.68,.23,.97,.02l2.54-1.85c.4-.29,.44-.86,.09-1.21-1.13-1.11-3.68-3.02-6.82-1.36-2.46,1.3-4.01,2.61-5.21,3.74-1.12,1.05-1.71,2.79-1.86,4.31-.24,2.47,.54,5.66,6.65,4.49,.2-.04,.4-.1,.59-.17,.9-.34,3.66-1.42,5.31-2.42,.56-.34,1.46-.77,2.1-.59,.81,.22,1.38,1.06,.6,2.38,0,0-4.39,3.3-5.36,3.45-.66,.1-1.64-.56-2.2-1-.27-.21-.65-.22-.93-.02Z"/>
</svg>